<svg xmlns="http://www.w3.org/2000/svg" viewBox="0 0 1199 1238" width="140" height="140">
	<style>
		tspan { white-space:pre }
		.shp0 { fill: #000000 } 
		.shp1 { fill: #ffffff } 
		.shp2 { fill: #336791 } 
	</style>
	<g id="Background">
		<path id="Path 0" class="shp0" d="M829 1.13C824.87 1.61 814.97 2.7 807 3.56C799.02 4.42 785.97 6.24 778 7.6C770.02 8.96 758.32 11.22 752 12.62C745.67 14.03 735.55 16.55 729.5 18.23L718.5 21.28C694.47 17.94 683.45 16.54 678.5 16.03C673.55 15.51 660.05 14.57 648.5 13.93C636.8 13.29 620.64 13.07 612 13.44C603.47 13.8 592.22 14.55 587 15.09C581.77 15.63 572.32 16.98 566 18.09C559.67 19.19 550 21.24 544.5 22.63C539 24.02 529.32 26.89 523 29C516.67 31.12 506.1 35.27 499.5 38.23C492.9 41.19 484.69 45.28 481.25 47.31C477.81 49.34 474.21 50.99 473.25 50.99C472.29 50.98 466.55 49.36 460.5 47.4C454.45 45.43 442.3 41.83 433.5 39.39C424.7 36.96 410.52 33.42 402 31.54C393.47 29.65 378.62 26.75 369 25.09C359.37 23.42 346.1 21.39 339.5 20.56C332.9 19.73 320.3 18.53 311.5 17.9C301.67 17.19 285.28 16.97 269 17.34C254.42 17.66 237.55 18.58 231.5 19.38C225.45 20.19 216.45 21.59 211.5 22.5C206.55 23.41 198 25.28 192.5 26.65C187 28.03 177.55 30.75 171.5 32.7C165.45 34.64 154.87 38.73 148 41.77C141.12 44.81 131.22 49.77 126 52.79C120.77 55.81 113.8 60.09 110.5 62.3C107.2 64.51 100.67 69.36 96 73.08C91.32 76.79 82.3 85.16 75.95 91.66C69.59 98.17 62.11 106.42 59.32 110C56.53 113.57 51.34 121 47.79 126.5C44.24 132 39.28 140.32 36.76 145C34.25 149.67 30.06 158.45 27.45 164.5C24.85 170.55 21.02 180.67 18.94 187C16.87 193.32 13.81 203.9 12.15 210.5C10.5 217.1 8.21 227.67 7.08 234C5.95 240.32 4.36 251.12 3.56 258C2.76 264.87 1.62 280.17 1.03 292C0.29 306.73 0.27 320.27 0.94 335C1.49 346.82 2.64 361.9 3.51 368.5C4.38 375.1 5.98 386.12 7.07 393C8.16 399.87 10.63 414.05 12.55 424.5C14.47 434.95 18.11 453.4 20.62 465.5C23.13 477.6 28.04 499.65 31.53 514.5C35.01 529.35 40.41 551.17 43.52 563C46.63 574.82 51.63 593.05 54.64 603.5C57.65 613.95 62.77 631.05 66.01 641.5C69.25 651.95 75.04 669.72 78.87 681C82.7 692.27 88.86 709.37 92.54 719C96.23 728.62 102.61 744.37 106.72 754C110.84 763.62 117.68 778.7 121.94 787.5C126.19 796.3 133.16 809.57 137.43 817C141.7 824.42 148.47 835.45 152.48 841.5C156.49 847.55 163.35 857 167.71 862.5C172.07 868 179.66 876.55 184.59 881.5C189.51 886.45 197.58 893.55 202.52 897.28C207.46 901.01 216.9 906.75 223.5 910.04C230.8 913.67 239.42 917.05 245.5 918.66C254.08 920.92 257.63 921.3 270.5 921.36C283.21 921.42 286.88 921.07 294.5 919.07C299.45 917.78 306.65 915.41 310.5 913.81C314.35 912.21 320.42 909.25 324 907.24C327.57 905.23 333.31 901.42 336.75 898.79L343 894C354.62 904.85 360.36 909.52 363.25 911.37C366.14 913.22 372.55 916.76 377.5 919.24C382.45 921.71 389.87 924.89 394 926.3C398.12 927.7 405.1 929.76 409.5 930.87C413.9 931.98 422.9 933.8 429.5 934.92C436.1 936.03 448.25 937.39 456.5 937.93C466.02 938.55 476.44 938.56 485 937.97C492.42 937.46 503.45 936.13 509.5 935.02C515.55 933.91 525.22 931.6 531 929.88C536.77 928.17 543.97 925.69 547 924.38C550.02 923.07 552.56 922.11 552.64 922.25C552.72 922.39 553.3 937.57 553.93 956C554.56 974.42 555.52 996.47 556.05 1005C556.58 1013.52 557.71 1028.15 558.56 1037.5C559.41 1046.85 560.75 1059 561.56 1064.5C562.36 1070 564.16 1080.35 565.57 1087.5C567.02 1094.82 571.33 1110.1 575.46 1122.5C579.48 1134.6 584.88 1149.22 587.46 1155C590.03 1160.77 594.46 1169.32 597.3 1174C600.14 1178.67 605 1185.65 608.09 1189.5C611.18 1193.35 616.59 1199.22 620.1 1202.55C623.62 1205.88 629.42 1210.68 633 1213.21C636.57 1215.74 642.87 1219.64 647 1221.86C651.12 1224.08 657.65 1227.09 661.5 1228.53C665.35 1229.98 672.1 1232.01 676.5 1233.05C680.9 1234.09 689.45 1235.63 695.5 1236.48C701.55 1237.32 709.2 1238.01 712.5 1238C715.8 1237.99 725.02 1237.12 733 1236.06C740.97 1235 751.1 1233.4 755.5 1232.5C759.9 1231.6 768.67 1229.56 775 1227.98C781.32 1226.39 792.12 1223.23 799 1220.96C805.87 1218.68 816 1214.7 821.5 1212.11C827 1209.52 835.55 1204.96 840.5 1201.97C845.45 1198.99 853.77 1193.12 859 1188.94C864.22 1184.76 871.54 1178.11 875.25 1174.17C878.96 1170.23 885.28 1162.61 889.28 1157.25C893.29 1151.89 899.12 1143 902.24 1137.5C905.36 1132 910 1122.77 912.55 1117C915.1 1111.22 919.2 1100.65 921.64 1093.5C924.09 1086.35 927.42 1075.55 929.03 1069.5C930.65 1063.45 933.06 1053.1 934.4 1046.5C935.74 1039.9 937.99 1027.07 939.39 1018C940.79 1008.92 942.61 994.97 943.42 987C944.24 979.02 945.38 966.2 945.96 958.5C946.53 950.8 947.47 934.37 948.04 922C948.61 909.62 949.4 897.15 949.79 894.28L950.5 889.05C1001.87 888.31 1011.59 887.75 1022 886.18C1029.42 885.06 1041.35 882.94 1048.5 881.47C1055.65 880 1067.12 877.08 1074 874.97C1080.87 872.87 1090.77 869.3 1096 867.03C1101.22 864.77 1109.55 860.77 1114.5 858.14C1119.45 855.52 1127.77 850.71 1133 847.47C1138.22 844.22 1146.77 838.34 1152 834.39C1157.22 830.45 1164.6 824.36 1168.4 820.86C1172.19 817.36 1178.16 810.9 1181.66 806.5C1185.16 802.1 1189.84 794.9 1192.05 790.5C1194.27 786.1 1196.73 780.02 1197.53 777C1198.41 773.65 1198.98 766.71 1198.99 759.25C1199 749.02 1198.63 745.97 1196.74 740.75C1195.5 737.31 1192.91 731.87 1190.99 728.65C1189.07 725.43 1184.69 720.14 1181.25 716.9C1177.24 713.11 1172.05 709.56 1166.75 706.98C1162.21 704.77 1155.35 702.3 1151.5 701.5C1147.57 700.68 1139.23 700.04 1132.5 700.05C1123.88 700.06 1116.84 700.76 1107.5 702.56C1100.35 703.93 1087.07 706.13 1078 707.45C1068.92 708.76 1057.79 710.1 1053.25 710.42C1048.71 710.74 1044.99 710.66 1044.99 710.25C1044.98 709.84 1048.96 702.52 1053.82 694C1058.69 685.47 1066.66 671.07 1071.53 662C1076.4 652.92 1084.84 636.27 1090.29 625C1095.74 613.72 1104.38 595.05 1109.51 583.5C1114.63 571.95 1122.07 554.4 1126.03 544.5C1130 534.6 1136.29 518.17 1140 508C1143.72 497.82 1149.7 480.27 1153.3 469C1156.9 457.72 1161.44 443.1 1163.39 436.5C1165.33 429.9 1169.19 415.61 1171.96 404.75C1174.73 393.89 1179.01 374.99 1181.46 362.75C1183.91 350.51 1187.04 332.62 1188.41 323C1189.78 313.37 1191.48 299.87 1192.19 293C1192.92 285.95 1193.48 268.08 1193.47 252C1193.47 234.04 1192.99 219.99 1192.16 214C1191.44 208.77 1189.71 199.32 1188.32 193C1186.92 186.67 1184.43 177.67 1182.77 173C1181.12 168.32 1178.19 161.35 1176.25 157.5C1174.31 153.65 1170.92 147.8 1168.71 144.5C1166.49 141.2 1161.52 134.67 1157.66 130C1153.8 125.32 1144.76 115.5 1137.57 108.16C1130.38 100.82 1120.45 91.34 1115.5 87.09C1110.55 82.83 1102 75.95 1096.5 71.78C1091 67.61 1081.1 60.84 1074.5 56.73C1067.9 52.62 1058.22 46.97 1053 44.19C1047.77 41.4 1038.44 36.84 1032.25 34.06C1026.06 31.28 1016.16 27.17 1010.25 24.94C1004.34 22.71 992.52 18.86 984 16.38C975.47 13.91 960.85 10.36 951.5 8.5C942.15 6.63 928.42 4.4 921 3.54C913.57 2.68 903.67 1.53 899 0.99C894.32 0.45 878.35 0.07 863.5 0.14C848.65 0.21 833.12 0.66 829 1.13Z" />
		<path id="Path 1" class="shp1" d="M837.5 33.59C835.3 33.8 827.87 34.45 821 35.03C814.12 35.61 803.77 36.76 798 37.59C792.22 38.41 781.42 40.22 774 41.6C766.57 42.99 755.1 45.44 748.5 47.04C741.9 48.65 731.44 51.54 725.25 53.48L714 57C695.79 53.22 684.2 51.19 676.5 50.05C668.8 48.91 653.5 47.45 642.5 46.79C627.18 45.88 618.17 45.88 604 46.77C593.82 47.41 580.1 48.87 573.5 50C566.9 51.14 557.22 53.16 552 54.48C546.77 55.81 538.45 58.24 533.5 59.89C528.55 61.54 519.32 65.2 513 68.01C506.67 70.83 496.21 76.26 489.75 80.07L478 87C455.14 79.2 441.52 74.94 433 72.5C424.47 70.07 410.75 66.52 402.5 64.62C394.25 62.71 381.54 60 374.25 58.58C366.96 57.16 356.39 55.3 350.75 54.45C345.11 53.6 334.42 52.23 327 51.4C319.57 50.57 302.7 49.63 289.5 49.31C274.2 48.93 260.06 49.16 250.5 49.94C242.25 50.61 230.32 52.01 224 53.05C217.67 54.1 207.1 56.28 200.5 57.91C193.9 59.54 183.77 62.51 178 64.52C172.22 66.53 161.87 70.87 155 74.16C148.12 77.45 138 83.09 132.5 86.71C127 90.32 119.35 95.86 115.5 99.02C111.65 102.17 104.2 109.2 98.94 114.63C93.67 120.06 86.53 128.32 83.07 133C79.6 137.67 74.25 145.77 71.19 151C68.12 156.22 63.51 165 60.94 170.5C58.37 176 54.6 185.22 52.56 191C50.53 196.77 47.33 207.35 45.47 214.5C43.6 221.65 41.16 232.67 40.06 239C38.96 245.32 37.28 257.25 36.32 265.5C35.01 276.86 34.59 288.51 34.6 313.5C34.61 342.05 34.91 348.66 36.83 362.5C38.05 371.3 40.59 387.72 42.48 399C44.37 410.27 48 429.85 50.54 442.5C53.08 455.15 57.84 477.2 61.1 491.5C64.37 505.8 69.94 528.75 73.47 542.5C77 556.25 82.64 577.17 86 589C89.36 600.82 95.06 619.95 98.66 631.5C102.27 643.05 108.58 662.17 112.69 674C116.8 685.82 123.45 703.82 127.46 714C131.47 724.17 137.83 739.47 141.59 748C145.35 756.52 151.74 770.02 155.78 778C159.82 785.97 167.18 799.25 172.12 807.5C177.06 815.75 184.79 827.44 189.3 833.47C193.81 839.51 202 848.99 207.5 854.54C213 860.1 220.42 866.7 224 869.23C227.57 871.75 233.65 875.39 237.5 877.33C241.35 879.27 248.1 881.84 252.5 883.05C258.09 884.6 263.21 885.25 269.5 885.22C274.45 885.2 281.65 884.44 285.5 883.53C289.35 882.62 295.65 880.42 299.5 878.64C303.35 876.86 309.65 873.18 313.5 870.46C317.35 867.74 323.9 862.13 328.05 858.01C332.2 853.88 342.61 842.17 351.17 832C359.74 821.82 372.27 807.2 379.01 799.5C385.76 791.8 399.65 776.34 409.89 765.15C420.12 753.96 429.69 743.39 431.15 741.65L433.81 738.5C447.52 744.95 453.97 747.71 457 748.8C460.02 749.89 467.67 751.95 474 753.37C480.32 754.79 489.44 756.3 494.26 756.72C499.07 757.15 503.01 757.72 503.01 758C503.01 758.27 498.13 764.57 492.17 772C486.21 779.42 479.46 787.19 477.17 789.25C474.87 791.31 470.41 794.3 467.25 795.89C464.09 797.48 457 800.17 451.5 801.86C446 803.55 433.17 806.79 423 809.06C412.82 811.32 401.24 814.26 397.25 815.59C393.26 816.91 386.96 819.53 383.25 821.39C379.54 823.26 374.32 826.75 371.65 829.14C368.81 831.7 365.74 835.77 364.23 839C362.34 843.03 361.65 846.1 361.67 850.5C361.69 854.85 362.42 858.09 364.35 862.25C365.81 865.41 369.14 870.14 371.75 872.76C374.36 875.38 379.2 879.29 382.5 881.45C385.8 883.62 392.55 887.07 397.5 889.13C402.45 891.19 411 894 416.5 895.38C422 896.75 431.45 898.69 437.5 899.69C445.75 901.05 453.88 901.5 470 901.48C488.47 901.47 493.12 901.14 503 899.15C509.32 897.87 518.1 895.69 522.5 894.31C526.9 892.93 535.67 889.33 542 886.33C548.32 883.32 556.65 878.76 560.5 876.19C564.35 873.61 570.09 869.37 573.25 866.75C576.41 864.14 579.11 862 579.25 862C579.39 862 579.83 885.74 580.24 914.75C580.65 943.76 581.43 976.95 581.98 988.5C582.54 1000.05 583.46 1016.47 584.03 1025C584.61 1033.52 585.75 1047.25 586.57 1055.5C587.39 1063.75 588.96 1076.12 590.06 1083C591.15 1089.87 592.9 1098.65 593.94 1102.5C594.99 1106.35 597.94 1114.45 600.52 1120.5C603.09 1126.55 607.46 1135.55 610.23 1140.5C613.01 1145.45 617.2 1152.2 619.54 1155.5C621.88 1158.8 626.88 1164.82 630.65 1168.89C634.42 1172.95 641.1 1178.97 645.5 1182.26C649.9 1185.55 658 1190.42 663.5 1193.09C669 1195.76 677.55 1199.02 682.5 1200.35C687.45 1201.67 696 1203.33 701.5 1204.03C707.89 1204.84 716.38 1205.08 725 1204.69C732.42 1204.36 742.55 1203.38 747.5 1202.52C752.45 1201.65 761.9 1199.65 768.5 1198.05C775.1 1196.46 785.45 1193.53 791.5 1191.54C797.55 1189.54 808.8 1184.84 816.5 1181.09C825.39 1176.76 834.15 1171.53 840.5 1166.78C846 1162.67 853.57 1155.97 857.32 1151.9C861.08 1147.83 866.54 1140.9 869.47 1136.5C872.39 1132.1 876.63 1124.79 878.89 1120.25C881.15 1115.71 884.74 1106.94 886.86 1100.75C888.99 1094.56 891.9 1084.55 893.34 1078.5C894.78 1072.45 897.07 1060.75 898.44 1052.5C899.8 1044.25 902.71 1024.67 904.9 1009C907.09 993.32 910.93 964.3 913.42 944.5C915.92 924.7 919.54 894.89 921.48 878.25C923.42 861.61 925 847.89 925.01 847.75C925.01 847.61 930.07 848.58 936.26 849.9C946.41 852.06 950.02 852.3 973.5 852.36C993.31 852.41 1002.6 852 1012.5 850.63C1019.65 849.65 1032.02 847.49 1040 845.85C1047.97 844.2 1059.9 841.11 1066.5 838.97C1073.1 836.84 1084.35 832.19 1091.5 828.65C1098.65 825.11 1108.55 819.65 1113.5 816.5C1118.45 813.36 1126.55 807.75 1131.5 804.04C1136.45 800.32 1144.1 793.46 1148.5 788.78C1153.44 783.53 1157.84 777.67 1160 773.44C1162.77 768.03 1163.58 765.13 1163.91 759.55C1164.24 753.71 1163.93 751.73 1162.06 748C1160.83 745.52 1158.84 742.44 1157.66 741.15C1156.47 739.86 1153.25 737.63 1150.5 736.19C1146.13 733.92 1144.04 733.54 1134 733.23C1124.27 732.92 1120.03 733.35 1106.5 735.97C1097.7 737.67 1083.75 739.94 1075.5 741C1067.25 742.06 1054.42 743.22 1047 743.58C1038.87 743.98 1028.92 743.77 1022 743.07C1015.67 742.43 1007.8 741.21 1004.5 740.36C1001.2 739.51 996.14 737.73 993.25 736.41C990.36 735.08 988 733.55 988 733C988 732.45 989.28 730.09 990.85 727.75C992.42 725.41 997.31 717.65 1001.73 710.5C1006.14 703.35 1013.81 690.52 1018.78 682C1023.74 673.47 1031.71 659.3 1036.48 650.5C1041.26 641.7 1050.24 624.15 1056.45 611.5C1062.66 598.85 1071.14 580.85 1075.28 571.5C1079.42 562.15 1085.96 546.85 1089.81 537.5C1093.66 528.15 1099.72 512.62 1103.29 503C1106.86 493.37 1112.78 476.5 1116.45 465.5C1120.12 454.5 1125.55 437.17 1128.51 427C1131.47 416.82 1135.92 400.4 1138.39 390.5C1140.86 380.6 1144.45 364.85 1146.36 355.5C1148.28 346.15 1150.77 332.42 1151.89 325C1153.02 317.57 1154.62 305.65 1155.45 298.5C1156.28 291.35 1157.42 277.17 1157.97 267C1158.63 255.03 1158.65 243.21 1158.04 233.5C1157.52 225.25 1156.62 215.35 1156.03 211.5C1155.44 207.65 1154.32 201.57 1153.53 198C1152.75 194.42 1150.68 187.45 1148.94 182.5C1147.2 177.55 1144.08 170.57 1142 167C1139.92 163.42 1135.18 156.67 1131.45 152C1127.73 147.32 1117.22 136.06 1108.09 126.96C1097.11 116.02 1086.77 106.88 1077.5 99.93C1069.8 94.15 1059.22 86.78 1054 83.54C1048.77 80.31 1039.55 75.07 1033.5 71.89C1027.45 68.72 1017.32 63.91 1011 61.21C1004.67 58.51 994.1 54.47 987.5 52.24C980.9 50 970.1 46.81 963.5 45.15C956.9 43.49 945.65 41 938.5 39.63C931.35 38.25 919.2 36.38 911.5 35.48C902.79 34.47 886.92 33.73 869.5 33.53C854.1 33.35 839.7 33.38 837.5 33.59Z" />
		<path id="Path 2" fill-rule="evenodd" class="shp2" d="M865.48 67.72C868.24 67.85 877.25 68.17 885.5 68.45C893.75 68.72 905.9 69.66 912.5 70.53C919.1 71.4 930.12 73.21 937 74.54C943.87 75.87 955.57 78.73 963 80.9C970.42 83.08 980.1 86.18 984.5 87.81C988.9 89.44 997.22 92.86 1003 95.41C1008.77 97.96 1017.77 102.47 1023 105.44C1028.22 108.4 1036.77 113.62 1042 117.03C1047.22 120.45 1055.77 126.65 1061 130.82C1066.22 134.99 1075.83 143.6 1082.34 149.95C1088.86 156.3 1097.86 165.93 1102.34 171.34C1106.83 176.75 1111.5 183.05 1112.72 185.34C1113.94 187.63 1116.03 192.87 1117.37 197C1118.7 201.12 1120.6 209 1121.6 214.5C1123.04 222.43 1123.41 229.77 1123.42 250C1123.42 264.02 1122.85 280.67 1122.15 287C1121.45 293.32 1119.75 305.92 1118.36 315C1116.98 324.07 1114.27 339.37 1112.34 349C1110.42 358.62 1106.43 375.95 1103.47 387.5C1100.52 399.05 1095.78 416.15 1092.94 425.5C1090.11 434.85 1087.4 443.85 1086.92 445.5C1086.45 447.15 1082.73 457.95 1078.66 469.5C1074.59 481.05 1067.43 500.17 1062.75 512C1058.07 523.82 1050.27 542.5 1045.42 553.5C1040.57 564.5 1029.51 587.67 1020.84 605C1012.16 622.32 1000.3 644.82 994.48 655C988.65 665.17 980.55 678.9 976.47 685.5C972.38 692.1 968.63 698.17 968.12 699C967.34 700.25 966.76 699.99 964.63 697.5C963.22 695.85 962.05 693.94 962.03 693.25C962.01 692.56 964.43 687.39 967.41 681.75C970.38 676.11 974.43 667.11 976.41 661.75C978.38 656.39 981.12 647.39 982.5 641.75C983.87 636.11 985.65 626.55 986.45 620.5C987.24 614.45 988.17 604.55 988.51 598.5C988.85 592.45 988.64 580.3 988.04 571.5C987.44 562.7 985.41 541.55 983.54 524.5C981.66 507.45 979.83 488.32 979.47 482C979.1 475.67 979.32 463.54 979.96 455C980.59 446.47 982.87 427.35 985.03 412.5C987.19 397.65 989.41 379.42 989.97 372C990.54 364.57 990.99 353.1 990.99 346.5C990.99 338.09 990.41 332.1 989.06 326.5C988 322.1 985.48 313.77 983.47 308C981.45 302.22 976.9 290.97 973.36 283C969.81 275.02 963.41 262.2 959.13 254.5C954.86 246.8 948.46 235.87 944.93 230.2C941.39 224.54 934.67 214.56 930 208.02C925.32 201.48 916.71 190.37 910.85 183.32C905 176.27 894.42 164.6 887.35 157.39C880.28 150.17 870.45 140.78 865.5 136.51C860.55 132.24 850.65 124.34 843.5 118.96C836.35 113.58 824.65 105.5 817.5 101.02C810.35 96.54 797.86 89.52 789.75 85.43C781.64 81.35 774.99 77.66 774.98 77.25C774.97 76.84 782.51 75.27 791.73 73.77C800.95 72.27 813 70.54 818.5 69.93C824 69.32 835.69 68.52 844.48 68.16C853.26 67.79 862.71 67.6 865.48 67.72ZM627.5 81.5C644.16 81.69 657.99 82.38 666 83.43C672.87 84.33 685.02 86.39 693 88.01C700.97 89.62 713.57 92.78 721 95.03C728.42 97.27 740.8 101.61 748.5 104.68C756.2 107.74 766.32 112.16 771 114.51C775.67 116.85 784 121.36 789.5 124.53C795 127.7 804 133.31 809.5 137C815 140.68 824 147.28 829.5 151.66C835 156.05 844.88 164.55 851.45 170.57C858.02 176.58 868.14 186.83 873.95 193.35C879.75 199.87 888.22 210 892.77 215.85C897.31 221.71 904.78 232.13 909.36 239C913.94 245.87 920.19 255.77 923.26 261C926.32 266.22 932.25 277.47 936.43 286C940.61 294.52 945.85 306.22 948.07 312C950.29 317.77 951.97 322.54 951.8 322.6C951.64 322.65 947.22 322.28 942 321.77C936.77 321.26 924.4 321.07 914.5 321.36C904.6 321.65 892.67 322.59 888 323.45C883.32 324.3 877.02 325.63 874 326.4C870.97 327.17 864.67 329.3 860 331.14C855.32 332.98 848.12 336.7 844 339.41C839.87 342.12 834.31 346.39 831.62 348.91C828.94 351.44 824.83 356.2 822.48 359.5C820.13 362.8 816.84 368.2 815.17 371.5C813.5 374.8 810.97 381.55 809.54 386.5C808.12 391.45 806.46 400.67 805.86 407C805.05 415.51 805.07 421.74 805.93 431C806.57 437.87 808.18 448.9 809.5 455.5C810.83 462.1 813.54 473.12 815.53 480C817.52 486.87 821.42 498.57 824.19 506C826.97 513.42 831.92 525.8 835.21 533.5C838.5 541.2 846.48 558.07 852.95 571C859.42 583.92 871.65 607.1 880.13 622.5C888.6 637.9 897.05 653.87 898.9 658C900.74 662.12 904.29 669.32 906.78 674C909.27 678.67 914.13 686.77 917.58 692C921.03 697.22 927.38 706 931.69 711.5C936 717 940.75 723.07 944.95 728.5L936.72 731.69C932.2 733.44 925.8 736.65 922.5 738.82C919.2 740.99 914.31 745.18 911.64 748.13C908.97 751.08 905.31 756.2 903.51 759.5C901.7 762.8 899.3 768.42 898.16 772C897.02 775.57 895.64 781.2 895.09 784.5C894.54 787.8 893.83 797.47 893.52 806C893.2 814.52 892.05 829.82 890.95 840C889.86 850.17 887.84 868.17 886.46 880C885.09 891.82 881.92 917.7 879.43 937.5C876.93 957.3 873.11 986.32 870.94 1002C868.77 1017.67 865.66 1038.37 864.04 1048C862.42 1057.62 859.92 1070 858.48 1075.5C857.05 1081 854.11 1090 851.96 1095.5C849.81 1101 846.43 1108.2 844.45 1111.5C842.47 1114.8 838.97 1119.93 836.68 1122.89C834.38 1125.86 830.02 1130.55 827 1133.31C823.97 1136.08 818.57 1140.23 815 1142.54C811.42 1144.86 805.35 1148.33 801.5 1150.27C797.65 1152.2 789.77 1155.44 784 1157.46C778.22 1159.48 767.42 1162.62 760 1164.45C752.57 1166.27 742.45 1168.33 737.5 1169.01C731.9 1169.78 722.83 1170.06 713.5 1169.75C700.24 1169.3 697.39 1168.88 689 1166.15C683.77 1164.44 676.58 1161.35 673.02 1159.27C669.45 1157.2 662.89 1151.9 658.43 1147.5C653.97 1143.1 648.51 1136.8 646.29 1133.5C644.08 1130.2 640.26 1123.45 637.8 1118.5C635.35 1113.55 632.15 1106.57 630.7 1103C629.24 1099.42 627.39 1093.8 626.58 1090.5C625.77 1087.2 624.2 1078.2 623.1 1070.5C622 1062.8 620.4 1047.5 619.54 1036.5C618.69 1025.5 617.47 1007.95 616.84 997.5C616.15 986.13 615.6 940.55 615.46 884C615.24 791.23 615.19 789.36 613.12 781.75C611.95 777.49 609.81 771.64 608.36 768.75C606.91 765.86 604.04 761.02 601.98 758C599.92 754.97 595.6 749.99 592.37 746.93C589.14 743.87 584.25 740.05 581.5 738.45C578.75 736.85 573.69 734.52 570.25 733.27C566.81 732.02 561.19 730.56 557.75 730.02C553.96 729.43 549.34 729.39 546 729.92C542.97 730.4 540.36 730.73 540.19 730.65C540.02 730.57 541.08 726.45 542.54 721.5C544 716.55 548.5 703.5 552.55 692.5C556.59 681.5 563.69 663.95 568.33 653.5C572.97 643.05 579.04 628.42 581.82 621C584.6 613.57 588.46 601.42 590.41 594C592.35 586.57 594.82 575.1 595.9 568.5C596.97 561.9 598.4 549.75 599.07 541.5C599.83 532.09 600.06 518.49 599.69 505C599.37 493.17 598.18 475.62 597.05 466C595.92 456.37 594.12 443.1 593.04 436.5C591.97 429.9 589.68 417.75 587.95 409.5C586.23 401.25 583.37 390.45 581.59 385.5C579.82 380.55 576.54 373.35 574.3 369.5C572.06 365.65 567.95 359.8 565.17 356.5C562.39 353.2 557.06 348.16 553.31 345.31C549.56 342.45 542.67 338.31 538 336.11C533.32 333.91 525.67 331.15 521 329.98C515.36 328.57 507.79 327.67 498.5 327.3C490.22 326.97 480.83 327.22 475.5 327.9C470.55 328.54 463.12 329.77 459 330.64C454.87 331.5 447.67 333.26 443 334.54C438.32 335.82 430.22 338.42 425 340.32C419.77 342.21 410.77 345.87 405 348.44C399.22 351.01 392.47 354.22 390 355.58C387.52 356.95 385.16 358.05 384.75 358.03C384.34 358.01 384.23 356.09 384.51 353.75C384.79 351.41 385.94 342.3 387.06 333.5C388.19 324.7 390.45 310.75 392.08 302.5C393.72 294.25 396.82 280.75 398.97 272.5C401.13 264.25 405 251.42 407.57 244C410.14 236.57 414.92 224.42 418.19 217C421.46 209.57 425.74 200.57 427.71 197C429.67 193.42 433.56 186.67 436.35 182C439.15 177.32 445.5 168.11 450.47 161.53C455.43 154.94 463.79 145.27 469.03 140.03C474.27 134.79 482.37 127.52 487.03 123.88C491.69 120.24 498.65 115.23 502.5 112.75C506.35 110.28 513.66 106.17 518.75 103.63C523.84 101.08 531.49 97.61 535.75 95.91C540.01 94.21 548.67 91.33 555 89.51C561.32 87.69 572.57 85.26 580 84.11C587.42 82.96 595.3 81.84 597.5 81.62C599.7 81.4 613.2 81.34 627.5 81.5ZM276 83.21C279.02 83.11 289.37 83.48 299 84.03C308.62 84.58 323.7 85.91 332.5 86.99C341.3 88.08 354.57 90.06 362 91.39C369.42 92.72 380.9 95.03 387.5 96.52C394.1 98 407.37 101.41 417 104.09C426.62 106.76 437.1 109.75 440.27 110.73C443.44 111.7 446.03 112.84 446.02 113.25C446.01 113.66 442.34 117.94 437.87 122.75C433.39 127.56 427.17 134.87 424.04 139C420.9 143.12 415.65 150.55 412.36 155.5C409.07 160.45 404.33 168.1 401.82 172.5C399.31 176.9 395.45 184.1 393.24 188.5C391.03 192.9 387.21 201.22 384.74 207C382.27 212.77 377.92 224.25 375.08 232.5C372.23 240.75 368.14 254.02 365.98 262C363.82 269.97 360.48 284.37 358.56 294C356.64 303.62 354.17 318.47 353.07 327C351.97 335.52 350.55 348.12 349.9 355C349.26 361.87 348.69 376.05 348.62 386.5C348.55 396.95 349.13 419 349.9 435.5C350.79 454.69 351.06 473.79 350.64 488.5C350.28 501.15 349.54 516.67 348.99 523C348.45 529.32 347.04 542.37 345.87 552C344.1 566.6 343.84 572.73 344.32 589C344.74 603.31 345.46 611.16 347.03 618.5C348.2 624 350.53 632.77 352.21 638C353.89 643.22 356.79 651.1 358.65 655.5C360.52 659.9 364.35 667.55 367.16 672.5C369.98 677.45 375.45 685.77 379.33 691C383.2 696.22 390.55 704.77 404.94 719.5L393.22 732.05C386.77 738.95 374.52 752.45 365.99 762.05C357.45 771.65 346.19 784.45 340.96 790.5C335.73 796.55 325.39 808.67 317.97 817.44C310.56 826.21 301.8 835.61 298.5 838.32C295.2 841.04 290.7 844.29 288.5 845.55C286.3 846.8 282.02 848.55 279 849.42C275.97 850.3 271.47 851 269 850.98C266.52 850.95 262.24 850.16 259.48 849.22C256.72 848.27 251.79 845.92 248.53 844C245.26 842.07 238.28 836.22 233.01 831C227.74 825.77 220.75 817.9 217.47 813.5C214.19 809.1 208.13 800.1 203.99 793.5C199.86 786.9 192.58 773.85 187.83 764.5C183.07 755.15 176.39 741.2 173 733.5C169.6 725.8 163.53 711.17 159.52 701C155.51 690.82 149.07 673.5 145.21 662.5C141.35 651.5 135.47 633.72 132.15 623C128.82 612.27 123.2 593.37 119.65 581C116.11 568.62 109.81 545 105.65 528.5C101.5 512 95.63 487.47 92.62 474C89.61 460.52 85.3 440.05 83.04 428.5C80.77 416.95 77.36 398.05 75.45 386.5C73.54 374.95 71.26 358.75 70.39 350.5C69.14 338.75 68.91 328.79 69.32 304.5C69.66 284.37 70.4 269.47 71.44 262C72.32 255.67 74.2 244.65 75.62 237.5C77.04 230.35 79.7 219.55 81.53 213.5C83.35 207.45 87.13 197.1 89.92 190.5C92.71 183.9 97.27 174.67 100.06 170C102.85 165.32 107.69 157.96 110.82 153.62C113.94 149.29 119.99 142.2 124.25 137.87C128.51 133.54 135.49 127.24 139.75 123.87C144.01 120.5 151.77 115.24 157 112.18C162.22 109.12 169.65 105.17 173.5 103.39C177.35 101.62 185.9 98.37 192.5 96.17C199.1 93.97 209.9 91.03 216.5 89.64C223.1 88.26 234.89 86.45 242.7 85.64C250.51 84.82 259.96 83.98 263.7 83.77C267.44 83.56 272.97 83.31 276 83.21ZM926 356.51C938.92 356.76 951.02 357.3 956.27 358.5L955.57 369C955.18 374.77 953.11 391.65 950.97 406.5C948.83 421.35 946.56 438.9 945.92 445.5C945.22 452.68 944.96 465.93 945.26 478.5C945.63 493.93 946.77 507.86 949.54 531C952.86 558.75 953.32 565.36 953.4 586.5C953.47 601.95 953.04 613.17 952.21 618C951.51 622.12 949.79 630 948.4 635.5C947.01 641 944.55 648.76 942.94 652.75C941.32 656.74 939.66 660.01 939.25 660.03C938.84 660.05 935.69 654.2 932.25 647.03C928.81 639.86 920.31 623.76 913.35 611.25C906.4 598.74 895.18 577.7 888.42 564.5C881.66 551.3 873.34 534.2 869.93 526.5C866.52 518.8 861.14 505.75 857.98 497.5C854.81 489.25 850.78 477.55 849.01 471.5C847.24 465.45 844.7 455.32 843.35 449C841.77 441.59 840.69 432.52 840.32 423.5C839.87 412.65 840.1 407.7 841.37 401.5C842.27 397.1 844.53 390.35 846.4 386.5C848.75 381.67 851.63 377.79 855.69 374C858.94 370.97 864.49 367.09 868.04 365.36C871.6 363.63 877.2 361.42 880.5 360.46C883.8 359.49 890.1 358.11 894.5 357.38C900.16 356.45 909.39 356.2 926 356.51ZM498.5 361.74C503.45 362.02 509.97 362.88 513 363.64C516.02 364.41 521.42 366.48 525 368.24C528.67 370.05 533.79 373.74 536.75 376.72C540.15 380.14 543.41 384.9 546 390.25C548.2 394.79 550.88 402.1 551.96 406.5C553.03 410.9 555.03 420.57 556.4 428C557.76 435.42 559.79 447.8 560.89 455.5C562 463.2 563.37 474.67 563.95 481C564.52 487.32 565 502.4 565 514.5C565.01 526.6 564.54 541.22 563.96 547C563.38 552.77 561.79 563.12 560.42 570C559.05 576.87 556.79 586.32 555.4 591C554 595.67 551.49 603.32 549.8 608C548.12 612.67 542.58 625.95 537.5 637.5C532.42 649.05 525.33 666.37 521.75 676C518.17 685.62 513.43 699.12 511.21 706C509 712.87 507.03 719.4 506.83 720.5C506.51 722.29 505.8 722.47 499.99 722.21C496.42 722.05 489.9 721.27 485.5 720.48C481.1 719.68 473.67 717.74 469 716.16C464.32 714.58 457.57 711.82 454 710.03C450.42 708.24 443.9 704.4 439.5 701.48C435.1 698.57 427.72 692.65 423.1 688.34C418.48 684.03 411.28 675.94 407.1 670.37C402.92 664.8 397.16 655.57 394.3 649.87C391.45 644.17 387.68 635.22 385.94 630C384.2 624.77 381.93 616.11 380.89 610.75C379.85 605.39 378.73 595.71 378.4 589.25C377.99 581.11 378.31 573.36 379.45 564C380.35 556.57 381.75 543.75 382.55 535.5C383.36 527.25 384.44 509.47 384.97 496C385.57 480.64 385.58 461.8 385 445.5C384.49 431.2 383.76 415.45 382.71 401.5L386.61 398.42C388.75 396.73 393.2 393.74 396.5 391.78C399.8 389.82 407 385.98 412.5 383.24C418 380.51 426.77 376.59 432 374.54C437.22 372.48 446.9 369.33 453.5 367.53C460.1 365.73 469.32 363.74 474 363.11C478.67 362.48 484.07 361.8 486 361.6C487.92 361.4 493.55 361.46 498.5 361.74Z" />
		<path id="Path 3" class="shp1" d="M890.25 373.05C887.36 373.57 882.41 374.99 879.25 376.2C876.09 377.41 871.98 379.77 870.11 381.45C868.25 383.13 866.34 385.51 865.86 386.75C865.3 388.21 865.47 390.14 866.35 392.25C867.09 394.04 869.68 397.27 872.1 399.44C874.52 401.61 878.52 404.3 881 405.42C884.25 406.89 887.58 407.46 893 407.45C899.33 407.45 901.36 407 906 404.56C909.02 402.98 913.54 399.61 916.02 397.09C918.59 394.49 921.37 390.34 922.44 387.5C923.82 383.86 924.08 381.82 923.42 380C922.84 378.43 920.65 376.6 917.5 375.07C913.63 373.19 910.58 372.58 904 372.38C899.32 372.23 893.14 372.53 890.25 373.05ZM484 382.5C481.52 383.33 478.49 384.68 477.25 385.5C476.01 386.33 474.36 388.46 473.57 390.25C472.6 392.44 472.39 394.64 472.9 397C473.32 398.92 474.8 402.3 476.17 404.5C477.55 406.7 480.89 410.44 483.59 412.81C486.29 415.18 490.52 418.1 493 419.29C496.04 420.76 499.93 421.58 505 421.82C510.72 422.09 513.81 421.69 518 420.15C521.21 418.97 525.71 416.12 528.82 413.31C531.88 410.54 534.79 406.81 535.69 404.5C537.12 400.79 537.1 400.22 535.37 396.56C534.34 394.4 531.92 391.37 530 389.84C528.07 388.31 523.12 385.86 519 384.4C512.98 382.27 509.24 381.68 500 381.38C491.59 381.1 487.29 381.41 484 382.5Z" />
		<path id="Path 4" class="shp2" d="M953.5 762.65C944.17 765.63 942.45 766.55 938 771C933.88 775.12 932.62 777.28 930.83 783.25C929.25 788.54 928.65 793.33 928.58 800.96L928.5 811.41C936.25 814.34 942.32 815.85 947 816.65C952.14 817.53 962.42 818.13 973 818.15C982.62 818.17 995.22 817.68 1001 817.05C1006.77 816.42 1016.67 815.03 1023 813.95C1029.32 812.88 1039.45 810.71 1045.5 809.12C1051.55 807.53 1060.1 804.8 1064.5 803.06C1068.9 801.31 1076.77 797.58 1082 794.78C1087.22 791.97 1093.97 788.07 1097 786.11C1100.02 784.16 1105.99 779.95 1110.25 776.78C1114.51 773.6 1117.81 770.66 1117.57 770.25C1117.34 769.84 1109.8 770.74 1100.82 772.26C1091.84 773.77 1077.75 775.73 1069.5 776.6C1058.5 777.77 1048.63 778.06 1032.5 777.7C1013.6 777.28 1009.02 776.86 1000 774.71C994.22 773.33 986.35 770.93 982.5 769.37C978.65 767.81 972.91 764.91 969.75 762.92L964.01 759.31L953.5 762.65ZM545 765.91C543.07 766.91 538.87 770.61 535.66 774.12C532.44 777.63 524.74 786.8 518.55 794.5C512.35 802.2 504.4 811.15 500.89 814.39C497.38 817.62 491.57 821.99 488 824.09C484.42 826.19 477.45 829.47 472.5 831.37C467.55 833.28 457.87 836.26 451 837.99C444.12 839.73 433.55 842.22 427.5 843.52C421.45 844.82 412.79 847.04 408.25 848.44C403.71 849.85 400 851.22 400 851.5C400 851.77 403.71 853.75 408.25 855.9C412.79 858.04 420.32 860.74 425 861.9C429.67 863.05 438.22 864.72 444 865.61C450.15 866.56 460.72 867.24 469.5 867.25C479.4 867.26 487.9 866.67 494.5 865.51C500 864.55 508.77 862.33 514 860.58C519.22 858.83 527.1 855.47 531.5 853.11C535.9 850.75 542.2 846.89 545.5 844.53C548.8 842.18 554.83 837.15 558.9 833.37C562.97 829.59 569.1 822.9 572.51 818.5C575.93 814.1 579.29 808.7 580 806.5C580.84 803.87 581.05 800.28 580.62 796C580.21 792.06 578.82 787.14 577.08 783.5C575.28 779.75 572.17 775.62 568.79 772.5C565.64 769.6 561.3 766.76 558.43 765.75C555.72 764.78 552.37 764.01 551 764.04C549.62 764.07 546.92 764.91 545 765.91Z" />
	</g>
</svg>