<svg xmlns="http://www.w3.org/2000/svg" width="63.133" height="38.362" viewBox="0 0 63.133 38.362"><g transform="translate(0 -100.445)"><g transform="translate(0 100.445)"><path d="M63.088,103.674a3.238,3.238,0,0,0-3.234-3.229h0l-56.621.078A3.233,3.233,0,0,0,0,103.761l.044,31.816a3.233,3.233,0,0,0,3.234,3.229h0l56.621-.078a3.238,3.238,0,0,0,3.229-3.238Zm-6.786.009L31.569,120.878,6.787,103.752ZM43.246,125.669,56.7,135.5l-50.3.069,13.18-9.9a1.617,1.617,0,1,0-1.982-2.555L3.275,133.894l-.039-28.665,27.416,18.947a1.617,1.617,0,0,0,1.842,0l27.363-19.022.041,28.738-14.67-10.776a1.617,1.617,0,0,0-1.982,2.555Z" transform="translate(0 -100.445)" fill="#fff"/></g></g></svg>